<?xml version="1.0" standalone="no"?><!DOCTYPE svg PUBLIC "-//W3C//DTD SVG 1.1//EN" "http://www.w3.org/Graphics/SVG/1.1/DTD/svg11.dtd"><svg t="1591759011567" class="icon" viewBox="0 0 1024 1024" version="1.1" xmlns="http://www.w3.org/2000/svg" p-id="5545" xmlns:xlink="http://www.w3.org/1999/xlink" width="200" height="200"><defs><style type="text/css"></style></defs><path d="M906.666667 412.586667h-259.84C747.477333 40.661333 577.365333 21.632 577.365333 21.632c-72.106667 0-57.130667 57.002667-62.592 66.56 0 181.802667-193.152 324.309333-193.152 324.309333v515.754667c0 50.901333 69.376 69.248 96.597334 69.248h390.4c36.778667 0 66.688-96.384 66.688-96.384 96.597333-328.448 96.597333-426.154667 96.597333-426.154667 0-67.84-65.28-62.464-65.28-62.464zM215.04 412.714667H59.434667c-32.128 0-32.64 31.573333-32.64 31.573333l32.128 520.149333c0 33.109333 33.152 33.109333 33.152 33.109334h134.698666c28.032 0 27.776-21.888 27.776-21.888V452.181333c0-39.936-39.509333-39.466667-39.509333-39.466666z" p-id="5546"></path></svg>