<svg t="1591756683210" class="icon" viewBox="0 0 1024 1024" version="1.1" xmlns="http://www.w3.org/2000/svg" p-id="1214" width="200" height="200"><path d="M739.69 899.7H435.07a13.82 13.82 0 1 1 0-27.63h304.62a22.24 22.24 0 0 0 21.54-16.63l88.45-341.6a26.66 26.66 0 0 0-25.75-33.55H598.84a49.29 49.29 0 0 1-42.73-24.21 49.83 49.83 0 0 1-1-49.63c11.82-21.89 19.14-43.38 21.75-63.81 5.53-43.13 6.45-121.29-6.18-155.86-5.75-16.06-11.32-31.6-38-33.33-29.71 2.35-34.07 20.13-37 31.87-2 8.18-4.07 17.63-6.31 27.86-9 41.15-21.38 97.48-44.63 138.1-44.47 77.65-143.12 124.88-146.22 126.85a13.82 13.82 0 0 1-14.83-23.32c0.7-0.46 96.09-45.69 137.06-117.27 21.16-36.92 33-90.87 41.61-130.28 2.31-10.49 4.43-20.16 6.49-28.52 3.28-13.42 12-49 63.66-52.88 46.69 2.89 57.9 34.23 63.29 49.29 17.15 47 13 135.27 8.42 171-3 23.83-11.42 48.53-24.86 73.41a22.51 22.51 0 0 0 0.39 22.35 21.64 21.64 0 0 0 19 10.74h225.18a54.3 54.3 0 0 1 52.53 68L788 862.24a49.93 49.93 0 0 1-48.31 37.46z" fill="#3585F9" p-id="1215"></path><path d="M248 512.31h-81.61v353.4a13.84 13.84 0 0 0 13.82 13.82h84.59V529.14a16.87 16.87 0 0 0-16.8-16.83z" fill="#BAD4FF" p-id="1216"></path><path d="M281.33 900.17h-92.12a41.51 41.51 0 0 1-41.46-41.46v-364.3A41.51 41.51 0 0 1 189.21 453h92.12a41.51 41.51 0 0 1 41.46 41.46v364.3a41.51 41.51 0 0 1-41.46 41.41z m-92.12-419.58a13.84 13.84 0 0 0-13.82 13.82v364.3a13.84 13.84 0 0 0 13.82 13.82h92.12a13.84 13.84 0 0 0 13.82-13.82v-364.3a13.84 13.84 0 0 0-13.82-13.82z" fill="#3585F9" p-id="1217"></path></svg>